<svg xmlns="http://www.w3.org/2000/svg" width="1440" height="800"><path d="m0 0 292.188-.625 92.348-.276c37.138-.045 37.138-.045 54.51-.053 12.966-.01 25.932-.054 38.898-.113 13.224-.06 26.447-.081 39.671-.067 7.861.007 15.721-.013 23.582-.074 5.806-.042 11.61-.032 17.416-.001 2.345.004 4.69-.008 7.036-.04 12.445-.157 21.399-.11 30.789 8.658L599 10c1.88 1.54 3.773 3.065 5.688 4.563 4.437 3.657 8.731 7.45 12.98 11.324a295.89 295.89 0 0 0 6.332 5.55c4.91 4.273 9.434 8.93 14 13.563 2.8 2.813 5.617 5.606 8.453 8.383 6.577 6.466 12.877 12.914 18.59 20.164 1.823 2.285 3.727 4.43 5.707 6.578 6.207 6.92 11.692 14.433 17.25 21.875l1.599 2.13C741.368 173.353 773.093 255.471 784 341l.458 3.325c5.29 39.392 4.957 81.317-.458 120.675l-.438 3.435A497.03 497.03 0 0 1 754 585l-1.17 3.024A477.618 477.618 0 0 1 715 664l-1.582 2.591c-15.239 24.887-32.691 48.742-52.445 70.253-1.847 2.018-3.632 4.077-5.41 6.156-4.273 4.91-8.93 9.434-13.563 14a907.016 907.016 0 0 0-8.383 8.453c-6.455 6.566-12.891 12.858-20.129 18.563-3.165 2.524-6.146 5.224-9.125 7.964L602 794l-1.62 1.484c-5.488 4.644-9.579 5.374-16.641 5.254l-3.068.021c-3.395.016-6.789-.01-10.184-.037-2.45.002-4.902.007-7.353.015-5.338.01-10.675.003-16.013-.022-8.04-.036-16.08-.038-24.12-.033-13.475.008-26.949-.012-40.423-.049-18.22-.049-36.438-.06-54.657-.065-43.807-.032-87.614-.116-131.421-.193L0 800V0ZM880.438 639.875C894.304 651.861 904.668 667.501 907 686c1.18 21.998-2.097 41.653-16.89 58.77-13.078 13.828-29.588 23.85-49.051 24.433-23.22.33-41.403-5.114-58.383-21.437-15.386-15.987-20.164-34.666-19.88-56.278.539-19.342 10.107-35.907 23.829-49.113 26.542-23 66.06-23.745 93.813-2.5Z" fill="#F5F5F5"/></svg>